# xmcd
#
# Track frame offsets:
# 150
# 14812
# 26139
# 38812
# 54941
# 69810
# 102038
# 119322
# 130782
# 145181
# 160007
# 170257
# 190476
# 206682
# 216243
# 231074
# 244082
# 256989
# 266649
# 278268
# 291513
# 303191
# 317838
#
# Disc length: 4439 seconds
#
#
# Revision: 0
# Processed by: cddbd v1.5.2PL0 Copyright (c) Steve Scherf et al.
# Submitted via: FreeRIP 2.944 
#
DISCID=49115517
DTITLE=Vários - Forróbodó
DYEAR=1969
DGENRE=Country
TTITLE0=Baita Macho
TTITLE1=Trem do Interior
TTITLE2=Pe na Tabua
TTITLE3=Porque Voce Nao Passa La
TTITLE4=Panela Velha
TTITLE5=Xote das Meninas
TTITLE6=Chalana (instrumental)
TTITLE7=Cintura Fina
TTITLE8=Disco Voador
TTITLE9=Festa na Roca
TTITLE10=Mineirinha
TTITLE11=Pinga Ni Mim
TTITLE12=Taca da Amargura
TTITLE13=Beira da Tuia
TTITLE14=Voltar aos Quinze Anos
TTITLE15=Arraia Feijao Queimado
TTITLE16=Quebrar o Coco
TTITLE17=Sou Mineiro
TTITLE18=Adeus Mariana (instrumental)
TTITLE19=Baile dos Bichos
TTITLE20=Minha Vida E So Chorar
TTITLE21=Cavalo Dourado
TTITLE22=Calor dos seus Abracos
EXTD=
EXTT0=
EXTT1=
EXTT2=
EXTT3=
EXTT4=
EXTT5=
EXTT6=
EXTT7=
EXTT8=
EXTT9=
EXTT10=
EXTT11=
EXTT12=
EXTT13=
EXTT14=
EXTT15=
EXTT16=
EXTT17=
EXTT18=
EXTT19=
EXTT20=
EXTT21=
EXTT22=
PLAYORDER=
